<svg id="fox-logo" xmlns="http://www.w3.org/2000/svg" viewBox="0 0 162 190">

        <path class="pate" d="M 1.112 121.884 L 1.146 186.842 L 20.243 186.956 L 20.385 151.371 Z"/>
        
        <path class="queue-1 fill-red-500" d="M 153.768 95.381 L 159.711 115.152 C 170.074 163.945 125.824 186.986 108.429 186.681 L 87.982 186.986 C 106.789 182.024 122.833 169.749 116.516 137.548 c -4.1653 -14.0737 -8.3307 -28.1473 -12.496 -42.221"/>
        
        <path class="queue-2 fill-gray-200" d="M 104.015 95.331 L 101.377 86.056 C 93.155 48.453 130.484 24.27 148.643 20.508 C 138.712 36.412 139.615 50.862 144.715 66.284 L 153.761 95.381 Z"/>
        
        <path class="body-1 fill-gray-200" d="M 1.113 121.891 C 1.532 147.777 21.527 161.986 36.843 160.965 L 54.656 79.609 L 54.59 70.898 L 0.992 50.18 Z"/>
        
        
        <path class="body-2 fill-red-500" d="M 54.656 79.612 C 22.969 90.795 23.316 124.626 25.188 132.401 S 27.149 140.919 31.242 149.896 C 35.205 156.516 37.717 163.256 40.854 170.688 C 44.577 178.33 48.963 184.99 62.691 186.985 L 82.021 187.193 C 102.378 182.332 113.471 146.447 83.479 127.651 C 65.27 118.683 55.134 101.689 54.751 90.964 Z"/>
        
        <path class="nose fill-black" d="M 65.29 58.079 C 66.971 58.843 68.246 59.196 70.261 59.398 C 72.04 59.565 73.651 59.599 75.481 59.515 C 76.337 59.447 76.938 59.433 77.579 59.498 C 78.522 59.615 78.774 59.95 78.754 60.421 C 78.676 61.583 78.509 62.972 77.931 63.778 C 75.041 69.114 71.53 71.156 65.276 72.137 Z"/>
        <path class="head fill-red-500" d="M 28.686 30.552 C 25.346 16.622 19.857 7.574 15.806 2.276 C 8.94 6.669 0.978 21.146 1.06 25.725 L 0.946 55.446 C 29.212 53.987 38.196 76.059 65.273 72.118 L 65.285 58.071 C 61.332 56.241 54.796 50.077 54.858 43.929 L 54.769 1.759 C 54.747 0.505 54.363 0.762 53.746 1.022 S 34.683 9.527 32.544 30.519 Z"/>
        
        <path class="eye fill-black" d="M 31.085 48.757 C 31.085 41.278 41.555 41.225 41.582 48.809 C 41.503 55.973 31.137 55.921 31.085 48.757 Z"/>

        <style>
            #fox-logo {
                .eye {
                    animation: anime-eye 10s ease 1s infinite;
                }
                .queue-2 {
                    animation: anime-queue-1 10s linear 1s infinite;
                }
                .queue-1 {
                    animation: anime-queue-2 10s linear 1s infinite;
                }

            }
            @keyframes anime-eye {
                0% {
                    d:path("M 31.085 48.757 C 31.085 41.278 41.555 41.225 41.582 48.809 C 41.503 55.973 31.137 55.921 31.085 48.757 Z")
                }
                2% {
                    d:path("M 31.085 48.757 C 31.113 55.89 41.504 56.002 41.582 48.809 C 41.503 55.973 31.137 55.921 31.085 48.757 Z")
                }
                4% {
                    d:path("M 31.085 48.757 C 31.085 41.278 41.555 41.225 41.582 48.809 C 41.503 55.973 31.137 55.921 31.085 48.757 Z")
                }
                100% {
                    d:path("M 31.085 48.757 C 31.085 41.278 41.555 41.225 41.582 48.809 C 41.503 55.973 31.137 55.921 31.085 48.757 Z")
                }
            }
            @keyframes anime-queue-1 {
                0% {
                    d:path("M 153.768 95.381 L 159.711 115.152 C 170.074 163.945 125.824 186.986 108.429 186.681 L 87.982 186.986 C 106.789 182.024 122.833 169.749 116.516 137.548 c -4.1653 -14.0737 -8.3307 -28.1473 -12.496 -42.221")
                }
                10% {
                    d:path("M 173.746 95.6 L 161.561 136.05 C 156.095 156.7 137.222 186.706 108.429 186.681 L 87.982 186.986 C 106.789 182.024 122.833 169.749 116.516 137.548 c -1.257 -10.255 -2.731 -9.715 7.311 -42.124")
                }
                20% {
                    d:path("M 173.746 95.6 L 161.561 136.05 C 156.095 156.7 137.222 186.706 108.429 186.681 L 87.982 186.986 C 106.789 182.024 122.833 169.749 116.516 137.548 c -1.257 -10.255 -2.731 -9.715 7.311 -42.124")
                }
                30% {
                    d:path("M 153.768 95.381 L 159.711 115.152 C 170.074 163.945 125.824 186.986 108.429 186.681 L 87.982 186.986 C 106.789 182.024 122.833 169.749 116.516 137.548 c -4.1653 -14.0737 -8.3307 -28.1473 -12.496 -42.221")
                }
                100% {
                    d:path("M 153.768 95.381 L 159.711 115.152 C 170.074 163.945 125.824 186.986 108.429 186.681 L 87.982 186.986 C 106.789 182.024 122.833 169.749 116.516 137.548 c -4.1653 -14.0737 -8.3307 -28.1473 -12.496 -42.221")
                }
            }
            @keyframes anime-queue-2 {
                0% {
                    d:path("M 104.015 95.331 L 101.377 86.056 C 93.155 48.453 130.484 24.27 148.643 20.508 C 138.712 36.412 139.615 50.862 144.715 66.284 L 153.761 95.381 Z")
                }
                10% {
                    d:path("M 123.805 95.432 L 133.173 64.786 C 139.568 44.471 130.484 24.27 129.599 20.77 C 138.063 22.651 188.851 41.085 175.496 90.18 L 173.769 95.605 Z")
                }
                20% {
                    d:path("M 123.805 95.432 L 133.173 64.786 C 139.568 44.471 130.484 24.27 129.599 20.77 C 138.063 22.651 188.851 41.085 175.496 90.18 L 173.769 95.605 Z")
                }
                30% {
                    d:path("M 104.015 95.331 L 101.377 86.056 C 93.155 48.453 130.484 24.27 148.643 20.508 C 138.712 36.412 139.615 50.862 144.715 66.284 L 153.761 95.381 Z")
                }
                100% {
                    d:path("M 104.015 95.331 L 101.377 86.056 C 93.155 48.453 130.484 24.27 148.643 20.508 C 138.712 36.412 139.615 50.862 144.715 66.284 L 153.761 95.381 Z")
                }
            }
        </style>
    </svg>