<svg width="54" height="42" viewBox="0 0 54 42" fill="none" xmlns="http://www.w3.org/2000/svg">
<path d="M12.75 0C15.5625 0 18 2.4375 18 5.25V8.25H36V5.25C36 2.4375 38.3438 0 41.25 0H48.75C51.5625 0 54 2.4375 54 5.25V12.75C54 15.6562 51.5625 18 48.75 18H41.25C38.3438 18 36 15.6562 36 12.75V9.75H18V12.75C18 14.0625 17.5312 15.1875 16.7812 16.0312L23.1562 25.0312C24 24.375 25.125 24 26.25 24H33.75C36.5625 24 39 26.4375 39 29.25V36.75C39 39.6562 36.5625 42 33.75 42H26.25C23.3438 42 21 39.6562 21 36.75V29.25C21 28.0312 21.375 26.9062 22.125 26.0625L15.75 17.0625C14.9062 17.7188 13.7812 18 12.75 18H5.25C2.34375 18 0 15.6562 0 12.75V5.25C0 2.4375 2.34375 0 5.25 0H12.75ZM12.75 1.5H5.25C3.09375 1.5 1.5 3.1875 1.5 5.25V12.75C1.5 14.9062 3.09375 16.5 5.25 16.5H12.75C14.8125 16.5 16.5 14.9062 16.5 12.75V5.25C16.5 3.1875 14.8125 1.5 12.75 1.5ZM33.75 25.5H26.25C24.0938 25.5 22.5 27.1875 22.5 29.25V36.75C22.5 38.9062 24.0938 40.5 26.25 40.5H33.75C35.8125 40.5 37.5 38.9062 37.5 36.75V29.25C37.5 27.1875 35.8125 25.5 33.75 25.5ZM37.5 5.25V12.75C37.5 14.9062 39.0938 16.5 41.25 16.5H48.75C50.8125 16.5 52.5 14.9062 52.5 12.75V5.25C52.5 3.1875 50.8125 1.5 48.75 1.5H41.25C39.0938 1.5 37.5 3.1875 37.5 5.25Z" fill="#FD7762"/>
</svg>
