<?xml version="1.0" encoding="utf-8"?>
<!-- Generator: Adobe Illustrator 25.0.0, SVG Export Plug-In . SVG Version: 6.00 Build 0)  -->
<svg version="1.1" id="Calque_1" xmlns="http://www.w3.org/2000/svg" xmlns:xlink="http://www.w3.org/1999/xlink" x="0px" y="0px"
	 viewBox="0 0 511 512" style="enable-background:new 0 0 511 512;" xml:space="preserve">
<style type="text/css">
	.st0{fill:#FFFFFF;}
</style>
<path class="st0" d="M255.2,0C114.6,0,0,114.9,0,256c0,68.9,26.6,133.4,74.8,181.5c48,47.9,112.1,74.5,180.4,74.5
	c68.5,0,132.9-26.5,180.9-74.5c48-48.2,74.3-112.4,74.3-181.5c0-68.4-26.3-132.6-74.3-181C387.8,26.8,323.7,0,255.2,0z M123.1,389.4
	C91.7,357.7,72.9,316.8,69,272.5c89.5-34.6,146.3-47,187-41.4c7.8,1.2,11.9,2.4,14.1,3.4c0,5.1-1.9,15.3-3.2,22.4
	c-4.9,25.1-11.5,59.4,6.8,93.9c14.4,27.3,41,48.2,81.4,64.2c-29.5,18.7-63.9,28.7-100.2,28.7C205.3,443.9,158.4,424.4,123.1,389.4z
	 M410.3,361.6c-41.2-11.4-67.5-26.3-76.3-42.8c-7.1-13.1-3.7-30.4,0-48.9c4.4-22.6,9.8-50.9-7.3-75c-11.9-16.8-31.9-27-60.9-31.1
	c-47.5-6.8-104.1,2.9-187.7,32.9c24.6-74.5,94.8-128.5,177.2-128.5c50.2,0,97.3,19.5,132.4,55c35.1,35.3,54.6,82.7,54.6,132.9
	C442.2,294.4,431,331,410.3,361.6z"/>
</svg>
