<svg width="18" height="17" viewBox="0 0 18 17" fill="none" xmlns="http://www.w3.org/2000/svg">
<path d="M0.5625 14.0938C0.5625 15.1836 1.44141 16.0625 2.53125 16.0625H17.7188C17.8594 16.0625 18 16.2031 18 16.3438C18 16.5195 17.8594 16.625 17.7188 16.625H2.53125C1.125 16.625 0 15.5 0 14.0938V1.15625C0 1.01562 0.105469 0.875 0.28125 0.875C0.421875 0.875 0.5625 1.01562 0.5625 1.15625V14.0938ZM16.5938 4.25C16.7344 4.25 16.875 4.39062 16.875 4.53125V8.75C16.875 8.92578 16.7344 9.03125 16.5938 9.03125C16.418 9.03125 16.3125 8.92578 16.3125 8.75V5.23438L10.3008 11.2109C10.1953 11.3164 10.0195 11.3164 9.91406 11.2109L6.75 8.04688L3.55078 11.2109C3.44531 11.3164 3.26953 11.3164 3.16406 11.2109C3.05859 11.1055 3.05859 10.9297 3.16406 10.8242L6.53906 7.44922C6.64453 7.34375 6.82031 7.34375 6.92578 7.44922L10.125 10.6133L15.8906 4.8125H12.375C12.1992 4.8125 12.0938 4.70703 12.0938 4.53125C12.0938 4.39062 12.1992 4.25 12.375 4.25H16.5938Z" fill="#FD7762"/>
</svg>
