 <svg id="line-svg" xmlns="http://www.w3.org/2000/svg" viewBox="0 0 1512 1050" fill="none" stroke="red" stroke-width="10px">
    <path id="border" d="M 0 0 L 1512 0 L 1512 1050 L 0 1050z"/>
    <path id="l1" style="--path-lenght:2027;" d="M 0 150 C 134 82 249 51 382 45 C 642 39 801 130 788 344 C 784 410 787 458 788 510 C 794 666 855 697 992 765 C 1103 820 1216 862 1320 949 C 1331 959 1411 1013 1429 1049"/>
    <path id="l2" style="--path-lenght:1785;" d="M 1430 0 C 1475 65 1491 168 1396 263 C 1197 430 960.6667 513 743 638 C 504 751 187 933 138 1050"/>
    <path id="l3" style="--path-lenght:1694;" d="M 135 0 C 95 77 48 179 45 234 C 43 349 97 428 197 467 C 348 513 504 551 665 590 C 777 620 928 710 985 788 C 1016 832 1066 969 1069 1050"/>
    <path id="l4" style="--path-lenght:1559;" d="M 1068 0 C 1071 129 1045 288 809 389 C 626 464 396 533 296 627 C 238 661 139 780 117 881 C 108 933 94 980 113 1050"/>
    <path id="l5" style="--path-lenght:2924;" d="M 115 0 C 132 103 181 190 242 276 C 460 546 719 819 1153 912 C 1247 921 1354 859 1352 702 C 1347 541 1256 463 1158 463 C 1022 461 842 574 768 783 C 734 879 725 968 755 1049"/>
    <path id="l6" style="--path-lenght:1250;" d="M 756 0 C 848 194 1120 360 1210 531 C 1267 632 1321 767 1307 890 C 1299 948 1286 994 1253 1050"/>
    <path id="l7" style="--path-lenght:1402;" d="M 1249 0 C 1195 89 1092 175 995 244 C 877 318 679 426 630 492 C 570 573 541 647 628 761 C 694 829 721 953 701 1050"/>
    <path id="l8" style="--path-lenght:1165;" d="M 698 0 C 662 167 564 330 534 503 C 514 673 519 867 775 1050"/>
    <path id="l9" style="--path-lenght:1444;" d="M 774 0 C 864.3333 62.3333 973 114 1045 187 C 1152 294 1216 382 1076 605 C 970 758 758 892 612 1049"/>
    <path id="l10" style="--path-lenght:1581;" d="M 606 0 C 513 92 383 211 346 283 C 269 425 274 528 399 606 C 558 703 812 766 929 852 C 1014 922 1052 978 1028 1050"/>
    <path id="l11" style="--path-lenght:1215;" d="M 1026 0 C 959 149 829 273 716 408 C 544 610 475 857 464 1049"/>
    <path id="l12" style="--path-lenght:1136;" d="M 466 0 C 457 404 663 764 849 1051"/>
</svg>