 <svg xmlns="http://www.w3.org/2000/svg" viewBox="-1.139 -1.97372 247 246.8">
    <path fill="white" d="M 162 114.681 c 0 2.804 13.24 14.36 20.973 18.305 c 6.795 3.467 5.571 1.753 -1.752 -2.454 c -3.697 -2.124 -9.533 -6.67 -12.971 -10.104 C 164.813 116.994 162 114.408 162 114.681 M -0.956 120.9 C 9.552 -53.314 244.485 -32.692 245.758 123.333 C 228.536 293.485 5.133 277.359 -1.039 121.067 Z" />
    <path class="gray" fill="#f8f9f7" stroke="#f8f9f7" d="M 113.5 3.565 c -1.65 0.222 -6.825 0.901 -11.5 1.509 c -18.574 2.417 -27.803 5.907 -43.65 16.505 c -46.942 31.393 -65.905 86.416 -47.327 137.322 c 6.968 19.093 18.818 37.396 28.901 44.64 c 2.591 1.861 7.1 6.131 10.02 9.488 c 5.48 6.301 21.123 19.027 26.502 21.561 c 1.68 0.791 2.18 0.87 1.113 0.174 c -1.068 -0.695 -2.98 -2.256 -4.25 -3.469 c -1.27 -1.212 -2.309 -1.958 -2.309 -1.658 c 0 0.808 -12.936 -9.495 -17.071 -13.596 c -9.955 -9.873 -17.25 -25.264 -18.798 -39.659 l -0.631 -5.866 l -5 -0.888 c -2.75 -0.488 -5.139 -1.006 -5.308 -1.15 c -0.614 -0.521 4.012 -23.137 6.03 -29.478 c 3.676 -11.551 14.574 -32.924 21.24 -41.654 c 1.946 -2.548 3.557 -4.906 3.581 -5.24 c 0.024 -0.333 0.18 -6.906 0.347 -14.606 c 0.318 -14.692 2.107 -22.905 7.638 -35.072 C 68.415 30.579 81.165 15 85.474 15 c 2.261 0 9.697 6.678 14.27 12.816 c 1.51 2.026 3 3.909 3.311 4.184 c 1.224 1.08 7.755 12.642 8.472 15 c 0.419 1.375 1.425 3.516 2.237 4.758 l 1.476 2.258 l 3.915 -3.537 C 129.727 40.928 155.936 28 164.726 28 c 6.694 0 8.497 30.355 2.812 47.359 c -2.775 8.301 -2.852 8.938 -1.228 10.125 c 2.011 1.471 11.69 17.247 11.69 19.055 c 0 4.163 14.407 13.567 27.697 18.079 c 9.111 3.094 14.303 8.137 14.303 13.893 c 0 7.674 -11.758 24.572 -21.763 31.276 c -10.714 7.181 -16.734 8.57 -34.772 8.028 l -14.724 -0.443 l 0.565 6.741 c 0.589 7.022 4.513 16.048 10.464 24.065 c 10.317 13.9 17.23 21.985 17.23 20.149 c 0 -0.615 2.356 -2.628 5.236 -4.473 c 16.922 -10.839 36.205 -33.003 45.114 -51.854 c 6.955 -14.716 7.631 -16.723 9.707 -28.849 c 8.855 -51.722 -15.716 -99.877 -64.727 -126.851 c -13.538 -7.451 -43.114 -12.848 -58.83 -10.735 M 81.387 27.25 C 67.162 42.634 59.086 67.274 61.989 86.427 l 1.153 7.606 l -2.908 3.734 c -14.199 18.23 -25.193 42.898 -26.365 59.158 c -0.388 5.376 0.655 5.887 5.419 2.654 l 3.64 -2.47 l -0.714 3.195 c -1.824 8.164 0.787 23.981 5.835 35.342 c 6.717 15.115 31.039 34.174 50.128 39.278 c 16.066 4.297 27.157 3.418 22.454 -1.78 c -1.791 -1.978 -1.791 -2.035 0.013 -2.003 c 6.268 0.111 14.352 -0.453 14.33 -0.998 c -0.014 -0.354 -2.368 -2.218 -5.23 -4.143 c -14.755 -9.922 -26.355 -25.172 -31.19 -41 c -5.801 -18.992 -5.578 -26.615 1.025 -34.958 c 1.881 -2.378 3.421 -4.662 3.421 -5.076 c 0 -1.703 -14.12 2.709 -19.693 6.153 c -5.853 3.618 -4.694 1.397 2.898 -5.553 c 18 -16.476 33.866 -19.556 59.446 -11.539 c 14.506 4.546 26.78 5.906 36.849 4.085 c 10.828 -1.959 9.964 -2.29 10.294 3.945 c 0.262 4.942 0.04 5.686 -2 6.72 c -4.387 2.223 -17.796 3.311 -27.812 2.256 c -20.248 -2.132 -33.272 -0.205 -39.291 5.814 c -2.924 2.925 -2.994 3.197 -1.829 7.088 c 0.885 2.953 1.877 4.212 3.675 4.664 c 1.623 0.407 2.487 1.349 2.533 2.759 c 0.069 2.084 0.094 2.088 0.93 0.142 c 0.62 -1.444 0.879 -0.425 0.93 3.662 c 0.306 24.654 18.267 53.915 33.849 55.144 c 7.023 0.554 6.458 -1.661 -2.979 -11.688 c -11.637 -12.365 -18.17 -26.019 -18.24 -38.118 c -0.073 -12.865 -0.637 -12.5 19.319 -12.5 c 23.935 0 31.313 -2.919 42.558 -16.836 c 8.246 -10.205 9.592 -15.423 4.928 -19.091 c -1.449 -1.14 -3.362 -2.089 -4.25 -2.108 c -0.888 -0.02 -6.115 -2.002 -11.615 -4.406 c -13.556 -5.924 -18.183 -10.166 -24.497 -22.459 c -2.753 -5.358 -6.579 -11.581 -8.504 -13.83 c -4.208 -4.916 -4.174 -4.049 -0.628 -16.052 C 164.157 58.714 165.311 36 161.763 36 c -6.91 0 -36.887 16.909 -46.35 26.145 l -5.087 4.964 l -1.749 -6.463 C 104.868 46.944 90.473 24 85.585 24 c -0.656 0 -2.545 1.462 -4.198 3.25 m -0.226 21.527 c -6.892 14.501 -7.521 22.47 -3.053 38.653 l 1.026 3.714 l 4.22 -8.322 c 2.321 -4.577 4.714 -9.222 5.316 -10.322 c 0.603 -1.1 1.667 -3.222 2.364 -4.716 c 0.697 -1.494 1.65 -2.48 2.117 -2.191 c 0.467 0.289 0.849 -0.144 0.849 -0.963 c 0 -0.818 0.741 -2.228 1.646 -3.133 c 1.528 -1.528 1.343 -2.245 -2.587 -9.996 c -6.655 -13.124 -6.926 -13.186 -11.898 -2.724 m 34.163 30.941 c -6.382 0.799 -6.019 3.155 0.398 2.573 c 9.998 -0.906 26.421 6.129 35.759 15.32 c 4.777 4.701 5.412 5.082 4.037 2.424 c -4.293 -8.302 -15.721 -16.673 -26.783 -19.618 c -5.166 -1.375 -7.178 -1.48 -13.411 -0.699" fill-rule="evenodd"/>
    <path fill="#f2600a" stroke="#f2600a" d="M 116 3.631 C 88.068 5.879 76.734 9.562 56.863 22.85 C 19.054 48.132 -2.369 96.202 5.555 137.974 c 5.153 27.166 23.026 59.579 36.777 66.696 l 2.832 1.466 l -2.537 -4.328 c -4.059 -6.928 -7.768 -17.785 -8.474 -24.808 l -0.653 -6.5 l -5 -0.5 c -3.669 -0.367 -4.953 -0.899 -4.824 -2 c 1.491 -12.69 4.415 -25.917 7.516 -34 c 4.81 -12.539 17.548 -35.645 21.745 -39.443 c 1.896 -1.716 2.005 -2.601 1.417 -11.562 c -1.496 -22.833 7.424 -46.745 23.77 -63.716 c 5.834 -6.057 8.213 -6.549 12.843 -2.653 c 7.491 6.303 21.345 26.712 23.326 34.363 l 0.645 2.489 l 4.281 -4.165 c 5.695 -5.541 20.994 -14.208 32.987 -18.688 c 11.018 -4.115 14.765 -4.503 16.51 -1.709 c 5.189 8.31 3.63 43.041 -2.314 51.527 c -1.223 1.746 -1.104 2.26 1.047 4.514 c 1.335 1.399 4.966 7.043 8.069 12.543 c 8.042 14.253 10.923 16.708 26.982 22.996 c 21.024 8.232 23.384 16.215 10.121 34.232 c -12.639 17.169 -26.402 23.136 -50.371 21.838 l -12.25 -0.663 v 3.89 c 0 9.803 10.021 27.636 25.029 44.542 c 3.067 3.455 29.016 -19.66 42.474 -37.835 c 28.596 -38.621 27.645 -96.144 -2.237 -135.318 C 190.284 18.432 153.146 0.642 116 3.631 M 80.038 29.75 C 66.613 44.803 58.494 73.832 63.084 90.364 c 0.971 3.498 0.842 4.112 -1.37 6.5 c -12.063 13.021 -25.36 41.434 -27.323 58.386 c -0.754 6.509 0.322 7.336 4.882 3.75 c 3.668 -2.885 3.76 -2.73 3.119 5.25 c -0.723 9.006 2.216 23.414 6.602 32.362 c 7.801 15.916 32.146 33.896 52.546 38.806 c 7.541 1.815 18.96 1.811 18.96 -0.007 c 0 -0.6 -4.537 -5.872 -10.083 -11.716 c -6.592 -6.947 -11.183 -12.802 -13.26 -16.911 c -8.557 -16.923 -7.877 -43.224 1.445 -55.924 c 2.001 -2.724 3.392 -5.199 3.092 -5.5 c -0.948 -0.948 -11.981 2.672 -17.444 5.724 c -9.235 5.159 -4.846 -1.5 6.525 -9.899 c 14.141 -10.446 17.711 -11.696 33.169 -11.61 c 12.95 0.072 14.048 0.243 24.556 3.829 c 13.775 4.7 28.432 5.921 37.934 3.158 c 6.936 -2.016 6.44 -2.41 6.747 5.35 c 0.469 11.885 -7.335 15.356 -34.867 15.507 c -15.742 0.087 -17.419 0.269 -19.961 2.167 c -11.395 8.507 -9.628 32.122 3.921 52.414 c 3.885 5.818 12.473 14.757 15.926 16.577 c 2.614 1.377 9.8 2.006 9.8 0.857 c 0 -1.522 -2.79 -5.465 -7.441 -10.514 c -11.354 -12.328 -17.491 -24.406 -18.296 -36.006 c -0.547 -7.886 0.891 -14.896 3.065 -14.936 c 0.644 -0.011 8.822 -0.124 18.172 -0.25 l 17 -0.228 l 7.326 -3.433 c 10.871 -5.095 24.06 -20.012 24.152 -27.317 c 0.034 -2.73 -3.145 -5.248 -9.057 -7.173 c -18.909 -6.157 -27.032 -12.203 -33.464 -24.907 c -4.516 -8.92 -7.937 -14.15 -11.749 -17.962 c -1.024 -1.024 -1.604 -2.537 -1.287 -3.362 C 162.729 66.907 165.665 37 160.971 37 c -7.263 0 -33.365 14.64 -44.025 24.692 l -6.567 6.193 l -2.797 -8.972 C 103.868 46.997 89.673 24 86.033 24 c -0.477 0 -3.175 2.587 -5.995 5.75 m 2.771 14.5 c -9.106 17.339 -11.206 32.737 -6.431 47.141 l 2.285 6.891 l 2.396 -3.391 c 1.317 -1.865 5.835 -7.054 10.038 -11.53 c 8.513 -9.066 9.411 -11.461 7.43 -19.83 C 96.781 56.149 88.106 40 85.887 40 c -0.465 0 -1.851 1.913 -3.078 4.25 m 29.579 35.39 c -1.162 0.255 -3.412 1.851 -5 3.547 l -2.888 3.084 l 3 -0.885 c 1.65 -0.487 7.075 -0.886 12.056 -0.886 c 15.63 0 29.893 9.21 40.324 26.038 c 1.113 1.796 1.16 1.75 0.557 -0.538 c -5.275 -20.011 -28.45 -34.654 -48.049 -30.36 M 162 114.681 c 0 2.804 13.24 14.36 20.973 18.305 c 6.795 3.467 5.571 1.753 -1.752 -2.454 c -3.697 -2.124 -9.533 -6.67 -12.971 -10.104 c -3.437 -3.434 -6.25 -6.02 -6.25 -5.747" fill-rule="evenodd"/>
    <path fill="#1b1c22" stroke="#1b1c22" d="M 79.474 31.118 C 66.32 47.398 59.9 69.377 63.002 87.509 l 1.269 7.419 l -3.089 3.518 c -12.968 14.769 -24.346 39.526 -26.567 57.804 c -0.671 5.522 -0.656 5.53 4.17 2.25 c 2.024 -1.375 3.917 -2.5 4.207 -2.5 c 0.291 0 0.524 5.063 0.518 11.25 c -0.022 24.337 9.221 40.827 30.878 55.091 c 16.143 10.631 35.209 16.826 43.596 14.164 c 2.857 -0.907 2.863 -0.899 -7.984 -12.17 c -14.844 -15.426 -19.205 -25.731 -19.396 -45.835 c -0.121 -12.791 1.757 -20.193 6.807 -26.827 c 1.747 -2.295 3.491 -4.687 3.875 -5.315 c 1.735 -2.838 -17.778 4.12 -20.394 7.272 c -0.625 0.754 -1.532 1.37 -2.014 1.37 c -5.139 0 11.285 -15.415 22.872 -21.467 c 6.546 -3.42 6.576 -3.969 0.173 -3.21 c -13.768 1.63 -29.338 13.368 -33.997 25.629 c -3.554 9.355 -1.576 25.827 2.359 19.637 c 2.321 -3.65 9.221 -11.93 10.215 -12.258 c 0.636 -0.21 1.005 5.04 1.014 14.42 c 0.017 17.66 2.192 27.392 9.276 41.5 c 1.975 3.933 -16.527 -9.953 -22.362 -16.784 c -14.716 -17.225 -18.358 -41.652 -9.204 -61.73 c 3.151 -6.91 3.163 -9.263 0.032 -6.518 c -2.109 1.85 -7.746 4.781 -9.194 4.781 c -0.57 0 0.102 -2.588 1.494 -5.75 c 6.335 -14.393 20.321 -31.506 22.885 -28 c 1.904 2.604 3.028 2.199 7.68 -2.764 c 2.327 -2.483 6.739 -6.411 9.805 -8.729 c 3.066 -2.318 7.824 -6.076 10.574 -8.35 c 7.37 -6.094 9.138 -6.766 18 -6.834 c 16.436 -0.127 30.757 10.024 39.554 28.038 c 6.045 12.377 13.009 19.381 25.06 25.201 c 6.342 3.063 7.743 4.176 8.261 6.563 c 1.359 6.254 0.722 9.38 -2.641 12.946 c -5.112 5.42 -10.98 6.678 -31.166 6.683 c -22.346 0.005 -26.214 2.306 -28.128 16.737 c -2.62 19.753 16.545 52.233 32.31 54.755 c 5.628 0.9 5.453 -0.077 -1.382 -7.708 c -17.549 -19.594 -24.818 -38.92 -19.437 -51.681 l 1.43 -3.393 l 14.07 0.637 c 21.858 0.989 31.372 -1.891 41.719 -12.628 c 7.412 -7.693 10.173 -12.263 10.267 -16.994 c 0.095 -4.808 0.475 -4.548 -17.195 -11.772 c -13.894 -5.68 -18.896 -10.22 -24.934 -22.63 c -2.498 -5.133 -6.354 -11.393 -8.569 -13.909 l -4.028 -4.576 l 2.575 -8.671 c 3.899 -13.131 4.984 -20.096 4.591 -29.473 c -0.43 -10.268 -0.359 -10.18 -6.474 -8.12 c -14.074 4.741 -28.981 13.859 -39.561 24.199 l -6.678 6.526 l -1.642 -5.901 c -3.349 -12.037 -8.33 -21.879 -16.734 -33.066 c -5.448 -7.254 -5.82 -7.23 -12.294 0.782 m 1.5 15.934 c -8.865 17.632 -10.239 34.203 -3.993 48.155 l 1.754 3.916 l 3.335 -4.312 c 1.835 -2.371 6.219 -7.223 9.742 -10.783 c 8.915 -9.007 10.114 -13.598 6.348 -24.313 c -2.046 -5.82 -10.298 -19.928 -11.987 -20.491 c -0.595 -0.198 -2.935 3.325 -5.199 7.828 m 62.124 7.763 c -15.397 7.619 -22.302 15.121 -13.962 15.17 c 1.449 0.008 3.924 0.687 5.5 1.509 c 3.452 1.801 6.364 1.944 6.364 0.314 c 0 -1.344 6.913 -12.917 10.128 -16.954 c 3.789 -4.758 1.528 -4.769 -8.03 -0.039 m -17.387 50.709 c -10.221 2.555 -12.284 4.672 -6.192 6.354 c 1.936 0.534 5.707 2.938 8.381 5.342 c 5.571 5.009 11.049 7.13 14.765 5.717 c 1.356 -0.515 4.011 -0.937 5.9 -0.937 c 4.308 0 4.467 -1.911 0.621 -7.474 c -6.03 -8.722 -13.355 -11.531 -23.475 -9.002" fill-rule="evenodd"/>
    </svg>
